<?xml version="1.0" encoding="utf-8"?>
<!-- Generator: Adobe Illustrator 18.1.0, SVG Export Plug-In . SVG Version: 6.00 Build 0)  -->
<!DOCTYPE svg PUBLIC "-//W3C//DTD SVG 1.0//EN" "http://www.w3.org/TR/2001/REC-SVG-20010904/DTD/svg10.dtd">
<svg version="1.0" id="Layer_1" xmlns="http://www.w3.org/2000/svg" xmlns:xlink="http://www.w3.org/1999/xlink" x="0px" y="0px"
	 viewBox="0 0 67 67" enable-background="new 0 0 67 67" xml:space="preserve">
<path opacity="0.2" d="M32,67C14.3,67,0,52.7,0,35S14.3,3,32,3s32,14.3,32,32S49.7,67,32,67z M41,21.6c-9,5.9-27.9,7.9-36.5,7.7
	C4.1,31.1,3.9,33,3.9,35c0,15.5,12.6,28.1,28.1,28.1S60.1,50.5,60.1,35c0-2.1-0.2-4.1-0.7-6C52.2,28,43.3,24.7,41,21.6z M19.2,38.4
	c0-1.7-1.4-3.1-3.1-3.1S13,36.7,13,38.4c0,1.7,1.4,3.1,3.1,3.1S19.2,40.2,19.2,38.4z M51,38.4c0-1.7-1.4-3.1-3.1-3.1
	c-1.7,0-3.1,1.4-3.1,3.1c0,1.7,1.4,3.1,3.1,3.1C49.6,41.6,51,40.2,51,38.4z M32,49c2.5,0,4.4-2,4.4-4.4h-8.9C27.6,47,29.5,49,32,49z
	"/>
<path opacity="0.2" d="M33.5,65.5c-17.7,0-32-14.3-32-32s14.3-32,32-32s32,14.3,32,32S51.2,65.5,33.5,65.5z M42.5,20.1
	c-9,5.9-27.9,7.9-36.5,7.7c-0.4,1.9-0.6,3.8-0.6,5.8C5.4,49,18,61.6,33.5,61.6S61.6,49,61.6,33.5c0-2.1-0.2-4.1-0.7-6
	C53.7,26.5,44.8,23.2,42.5,20.1z M20.7,36.9c0-1.7-1.4-3.1-3.1-3.1s-3.1,1.4-3.1,3.1c0,1.7,1.4,3.1,3.1,3.1S20.7,38.7,20.7,36.9z
	 M52.5,36.9c0-1.7-1.4-3.1-3.1-3.1c-1.7,0-3.1,1.4-3.1,3.1c0,1.7,1.4,3.1,3.1,3.1C51.1,40.1,52.5,38.7,52.5,36.9z M33.5,47.5
	c2.5,0,4.4-2,4.4-4.4h-8.9C29.1,45.5,31,47.5,33.5,47.5z"/>
<path fill="#FFFFFF" d="M35,64C17.3,64,3,49.7,3,32S17.3,0,35,0s32,14.3,32,32S52.7,64,35,64z M44,18.6c-9,5.9-27.9,7.9-36.5,7.7
	C7.1,28.1,6.9,30,6.9,32c0,15.5,12.6,28.1,28.1,28.1S63.1,47.5,63.1,32c0-2.1-0.2-4.1-0.7-6C55.2,25,46.3,21.7,44,18.6z M22.2,35.4
	c0-1.7-1.4-3.1-3.1-3.1c-1.7,0-3.1,1.4-3.1,3.1c0,1.7,1.4,3.1,3.1,3.1C20.8,38.6,22.2,37.2,22.2,35.4z M54,35.4
	c0-1.7-1.4-3.1-3.1-3.1c-1.7,0-3.1,1.4-3.1,3.1c0,1.7,1.4,3.1,3.1,3.1C52.6,38.6,54,37.2,54,35.4z M35,46c2.5,0,4.4-2,4.4-4.4h-8.9
	C30.6,44,32.5,46,35,46z"/>
</svg>
